<svg xmlns="http://www.w3.org/2000/svg" xmlns:xlink="http://www.w3.org/1999/xlink" viewBox="0 0 1096.89 379.29"><defs><style>.cls-1{fill:#ffc780;}.cls-1,.cls-2{fill-rule:evenodd;}.cls-2{fill:url(#linear-gradient);}</style><linearGradient id="linear-gradient" x1="214.25" y1="256.77" x2="214.25" y2="122.73" gradientUnits="userSpaceOnUse"><stop offset="0" stop-color="#ffc780"/><stop offset="1" stop-color="#964b48"/></linearGradient></defs><g id="Layer_1" data-name="Layer 1"><path class="cls-1" d="M189.58,95a94.57,94.57,0,0,1,80.84,45.4h0a49.28,49.28,0,1,0,0,98.55h0A94.68,94.68,0,1,1,189.58,95Z"/><path class="cls-2" d="M270.42,140.37h0a49.28,49.28,0,1,0,0,98.55h0l-.29.48a67,67,0,1,1,.29-99Z"/></g><g id="Слой_1" data-name="Слой 1"><path d="M629.13,244.32c25,0,41.82-7,41.82-24.47,0-31-55.76-15.25-55.76-24.93,0-3.34,5.69-5.21,18.78-5.21,10.66,0,21.08,1.82,31.29,3.69V172.63c-12.37-2.41-27-4-35.56-4-25,0-41.81,7.68-41.81,24.75,0,29.72,55.75,13.71,55.75,25.15,0,3.44-5.69,5.51-18.78,5.51-12.51,0-21.9-2.45-33.85-7v21.71A152.68,152.68,0,0,0,629.13,244.32Z"/><path d="M359.61,244.3c36,0,60-17.1,60-44.55h-29c-1.14,14.36-13.51,20.09-31,20.09-18.77,0-31.29-9.39-31.29-27.6s12.52-27.59,31.29-27.59c17.35,0,29.73,6.09,31,20.45h29c0-27.45-24-44.91-60-44.91s-60,20.76-60,52.05S323.63,244.3,359.61,244.3Z"/><path d="M716.57,244.3c14.08,0,22.33-2.56,33.85-7.68v-24a55.49,55.49,0,0,1-29.59,8.68c-11.23,0-18.35-6.12-18.35-14.79s6.69-14.8,17.93-14.8c12.08,0,21.9,4,30,8.82V176.31c-11.38-5.12-20.91-7.68-33.71-7.68-26.88,0-41.53,14.94-41.53,37.84C675.18,229.22,690.82,244.3,716.57,244.3Z"/><path d="M850.37,242H879.1V218.13c0-15.79,8.25-27.88,19.77-27.88s16.35,4.7,16.35,23.33V242H944V211.16c0-35.42-8.67-42.24-28.59-42.53-22.47,0-32,8.25-35.7,31.58h-1.42l0-29.3H850.37Z"/><path d="M980.51,243.45A78.26,78.26,0,0,0,1002,240.6V223.53c-2.28.15-4.13.29-5.69.29-8.39,0-8.39-2.85-8.39-11.66V192H1002V170.91H987.91V151L962,153.84v17.07H951.07V192h8.11v24.46C959.18,236.76,962,243.45,980.51,243.45Z"/><path d="M428.19,242h28.73V218.15c0-22.9,11.94-25,37.54-25V168.65c-22.33,0-33.28,8.25-37,31.58h-1.42l.86-29.3H428.19Z"/><path d="M539.37,244.32c19.91,0,28.58-2.85,39.68-7v-22c-6.66,5.12-16.11,9.33-32.57,9.33-12.09,0-19.06-5.8-21.48-12.06h57.18V200.94c-.43-19.35-17.36-32.29-42.81-32.29-25.75,0-42.82,15.08-42.82,37.83S513.62,244.32,539.37,244.32Zm-15.08-41.68c1.56-7.39,7.82-13.94,15.08-13.94,7.82,0,15.23,6.12,16,13.23Z"/><path d="M799,244.32c19.92,0,28.59-2.85,39.68-7V214.73c-6.65,5.12-16.1,9.93-32.57,9.93-12.09,0-19.06-5.8-21.47-12.06H841.8V200.94c-.44-19.35-17.36-32.29-42.82-32.29-25.74,0-42.81,15.08-42.81,37.83S773.24,244.32,799,244.32ZM783.9,202.64c1.57-7.39,7.83-13.94,15.08-13.94,7.82,0,14.37,6.12,15.08,13.23Z"/></g></svg>