<?xml version="1.0" encoding="UTF-8"?><svg xmlns="http://www.w3.org/2000/svg" xmlns:xlink="http://www.w3.org/1999/xlink" viewBox="0 0 220.95 249.56"><defs><style>.l{fill:url(#k);}.m{fill:url(#j);}.n{fill:url(#e);}.n,.o,.p{fill-rule:evenodd;}.o{fill:url(#i);}.q{fill:#a56ccc;}.r{fill:url(#f);fill-opacity:.9;}.s{clip-rule:evenodd;fill:none;}.t{opacity:.5;}.p{fill:#ffc780;}.u{clip-path:url(#d);}.v{clip-path:url(#h);}.w{fill:url(#g);opacity:.7;}</style><clipPath id="d"><path class="s" d="M220.95,206.32h0c0-13.75-47.68-24.88-106.5-24.88S7.95,192.58,7.95,206.31v17.3h0c0,.09,0,.17,0,.26,0,14.19,47.68,25.69,106.5,25.69s106.5-11.5,106.5-25.69c0-.09,0-.17,0-.26h0v-17.29Z"/></clipPath><radialGradient id="e" cx="-302.68" cy="666.83" fx="-302.68" fy="666.83" r="1" gradientTransform="translate(-250406.36 11107.43) rotate(90) scale(35.95 -375.69)" gradientUnits="userSpaceOnUse"><stop offset="0" stop-color="#652f88"/><stop offset=".56" stop-color="#8e46bf"/></radialGradient><radialGradient id="f" cx="-297.59" cy="668.93" fx="-297.59" fy="668.93" r="1" gradientTransform="translate(-71125.95 7606.7) rotate(90) scale(24.87 -106.5)" gradientUnits="userSpaceOnUse"><stop offset=".07" stop-color="#fff"/><stop offset=".85" stop-color="#fff" stop-opacity="0"/></radialGradient><radialGradient id="g" cx="-308.56" cy="667.6" fx="-308.56" fy="667.6" r="1" gradientTransform="translate(-130068.12 23049.62) rotate(90) scale(74 -195)" gradientUnits="userSpaceOnUse"><stop offset="0" stop-color="#fff"/><stop offset=".41" stop-color="#fff" stop-opacity=".46"/><stop offset="1" stop-color="#fff" stop-opacity="0"/></radialGradient><clipPath id="h"><path class="s" d="M175.16,209.3c-19.43,3.7-40.17,5.71-61.71,5.71s-41.14-1.89-60.1-5.4c-16.09-10.07-29.41-23.99-38.73-40.5C4.87,151.83-.17,132.32,0,112.51c.17-19.81,5.55-39.22,15.6-56.32,10.05-17.1,24.41-31.28,41.67-41.14C74.53,5.2,94.08,0,113.97,0h-.01c19.56-.01,38.8,4.98,55.85,14.51,17.06,9.53,31.37,23.27,41.55,39.9-15.74,0-30.83,6.22-41.96,17.3-11.13,11.08-17.38,26.11-17.38,41.78s6.25,30.7,17.38,41.78c11.13,11.08,26.23,17.3,41.96,17.3-9.1,14.87-21.5,27.42-36.21,36.72Z"/></clipPath><linearGradient id="i" x1="143.72" y1="58.06" x2="143.72" y2="218.75" gradientTransform="translate(0 252) scale(1 -1)" gradientUnits="userSpaceOnUse"><stop offset="0" stop-color="#ffc780"/><stop offset="1" stop-color="#964b48"/></linearGradient><radialGradient id="j" cx="-312.87" cy="666.78" fx="-312.87" fy="666.78" r="1" gradientTransform="translate(-266410.3 103175.98) rotate(90) scale(330.14 -399.72)" gradientUnits="userSpaceOnUse"><stop offset=".9" stop-color="#ffe1bc" stop-opacity="0"/><stop offset="1" stop-color="#ffeded" stop-opacity=".8"/></radialGradient><radialGradient id="k" cx="-312.81" cy="666.78" fx="-312.81" fy="666.78" r="1" gradientTransform="translate(-266573.48 98254.72) rotate(90) scale(314.42 -399.96)" gradientUnits="userSpaceOnUse"><stop offset=".15" stop-color="#b84bff" stop-opacity="0"/><stop offset="1" stop-color="#b84bff"/></radialGradient></defs><g id="a"/><g id="b"><g id="c"><g><g class="u"><path class="n" d="M220.95,206.32h0c0-13.75-47.68-24.88-106.5-24.88S7.95,192.58,7.95,206.31v17.3h0c0,.09,0,.17,0,.26,0,14.19,47.68,25.69,106.5,25.69s106.5-11.5,106.5-25.69c0-.09,0-.17,0-.26h0v-17.29Z"/><path class="q" d="M220.95,206.31c0,13.73-47.68,24.87-106.5,24.87S7.95,220.04,7.95,206.31s47.68-24.87,106.5-24.87,106.5,11.13,106.5,24.87Z"/><path class="r" d="M220.95,206.31c0,13.73-47.68,24.87-106.5,24.87S7.95,220.04,7.95,206.31s47.68-24.87,106.5-24.87,106.5,11.13,106.5,24.87Z"/><ellipse class="w" cx="113.95" cy="216" rx="195" ry="74"/></g><g class="v"><path class="p" d="M113.96,0c19.56-.01,38.8,4.98,55.85,14.51,17.06,9.53,31.37,23.27,41.55,39.9h0c-15.74,0-30.83,6.22-41.96,17.3-11.13,11.08-17.38,26.11-17.38,41.78s6.25,30.7,17.38,41.78c11.13,11.08,26.23,17.3,41.96,17.3-10.35,16.91-24.98,30.83-42.41,40.38-17.43,9.54-37.07,14.38-56.97,14.03-19.89-.35-39.35-5.88-56.43-16.03-17.08-10.15-31.2-24.58-40.94-41.85C4.87,151.83-.17,132.32,0,112.51c.17-19.81,5.55-39.22,15.6-56.32,10.05-17.1,24.41-31.28,41.67-41.14C74.53,5.2,94.08,0,113.97,0h-.01Z"/><path class="o" d="M211.36,54.41c-15.74,0-30.84,6.22-41.96,17.3-11.13,11.08-17.38,26.11-17.38,41.78s6.25,30.7,17.38,41.78c11.13,11.08,26.22,17.31,41.96,17.31l-.38,.56c-11.59,10.46-25.99,17.34-41.44,19.8-15.45,2.46-31.28,.4-45.58-5.93-14.29-6.33-26.43-16.67-34.93-29.74-8.5-13.08-13-28.33-12.95-43.91,.05-15.58,4.65-30.8,13.23-43.83,8.58-13.02,20.78-23.28,35.12-29.53,14.33-6.24,30.18-8.21,45.62-5.65,15.43,2.56,29.79,9.53,41.31,20.06Z"/><path class="m" d="M113.95,215c21.54,0,42.28-2,61.71-5.71,14.71-9.3,27.1-21.86,36.21-36.72l68.08-115.57V-57.5H-52.05V57L17.16,172.57c9.18,15,21.74,27.67,36.69,37.03,18.97,3.51,39.16,5.4,60.1,5.4Z"/><g class="t"><path class="l" d="M113.95,215c22.45,0,44.06-2,64.31-5.7,15.33-9.29,28.25-21.82,37.73-36.66l70.95-115.36V-57H-59.05V57.29L13.08,172.65c9.57,14.97,22.65,27.62,38.23,36.96,19.77,3.5,40.81,5.39,62.64,5.39Z"/></g></g></g></g></g></svg>