<svg width="400" height="400" viewBox="0 0 400 400" fill="none" xmlns="http://www.w3.org/2000/svg">
<g clip-path="url(#clip0_2363_219916)">
<path d="M400 0H0V400H400V0Z" fill="white"/>
<path d="M411.73 -12H-12.2695V412H411.73V-12Z" fill="url(#paint0_radial_2363_219916)"/>
<g opacity="0.5" filter="url(#filter0_f_2363_219916)">
<path opacity="0.5" d="M200 707.295C447.897 707.295 648.858 562.029 648.858 382.833C648.858 203.638 447.897 58.3711 200 58.3711C-47.8978 58.3711 -248.858 203.638 -248.858 382.833C-248.858 562.029 -47.8978 707.295 200 707.295Z" fill="url(#paint1_radial_2363_219916)"/>
</g>
<g opacity="0.3">
<path opacity="0.3" d="M65.3554 98.4109C65.4458 98.5915 65.4771 98.796 65.4448 98.9953C65.4126 99.1947 65.3184 99.3789 65.1756 99.5217C65.0327 99.6645 64.8486 99.7588 64.6492 99.7911C64.4498 99.8233 64.2453 99.792 64.0647 99.7016C63.8837 99.6188 63.7385 99.4736 63.6557 99.2925C63.5658 99.1122 63.5348 98.9082 63.5671 98.7094C63.5994 98.5105 63.6934 98.3269 63.8357 98.1843C63.978 98.0417 64.1615 97.9473 64.3602 97.9146C64.559 97.8819 64.7631 97.9124 64.9436 98.0018C65.1242 98.0861 65.2699 98.2308 65.3554 98.4109Z" fill="white"/>
<path opacity="0.3" d="M159.212 104.055C159.303 104.235 159.336 104.44 159.304 104.64C159.273 104.839 159.179 105.024 159.036 105.167C158.893 105.31 158.708 105.405 158.509 105.437C158.309 105.469 158.104 105.437 157.924 105.345C157.743 105.261 157.598 105.115 157.515 104.934C157.424 104.753 157.392 104.549 157.424 104.35C157.456 104.151 157.55 103.967 157.693 103.824C157.836 103.681 158.02 103.587 158.219 103.555C158.418 103.523 158.622 103.555 158.803 103.646C158.984 103.729 159.129 103.874 159.212 104.055Z" fill="white"/>
<path opacity="0.3" d="M262.214 109.48C262.305 109.66 262.337 109.865 262.305 110.065C262.273 110.265 262.179 110.449 262.035 110.592C261.892 110.735 261.708 110.829 261.508 110.861C261.308 110.892 261.103 110.86 260.923 110.768C260.743 110.683 260.598 110.539 260.514 110.359C260.423 110.178 260.392 109.974 260.424 109.774C260.457 109.575 260.551 109.391 260.694 109.248C260.837 109.105 261.021 109.011 261.22 108.979C261.42 108.946 261.624 108.978 261.805 109.068C261.985 109.154 262.129 109.299 262.214 109.48Z" fill="white"/>
<path opacity="0.3" d="M364.749 99.6273C364.839 99.8075 364.871 100.011 364.839 100.211C364.807 100.41 364.713 100.594 364.57 100.737C364.428 100.879 364.244 100.973 364.044 101.005C363.845 101.037 363.641 101.006 363.461 100.915C363.28 100.832 363.135 100.687 363.052 100.506C362.961 100.326 362.929 100.121 362.961 99.9226C362.993 99.7234 363.087 99.5393 363.23 99.3967C363.373 99.254 363.557 99.16 363.756 99.1279C363.955 99.0959 364.159 99.1275 364.34 99.2183C364.521 99.3011 364.666 99.4463 364.749 99.6273Z" fill="white"/>
<path opacity="0.3" d="M400.066 132.754C400.158 132.934 400.19 133.139 400.159 133.339C400.127 133.538 400.033 133.723 399.89 133.866C399.747 134.01 399.563 134.104 399.363 134.136C399.163 134.168 398.958 134.136 398.778 134.045C398.597 133.96 398.451 133.814 398.366 133.633C398.275 133.452 398.243 133.248 398.275 133.048C398.307 132.848 398.401 132.664 398.544 132.521C398.688 132.378 398.872 132.284 399.072 132.252C399.272 132.221 399.477 132.253 399.657 132.345C399.838 132.428 399.983 132.573 400.066 132.754Z" fill="white"/>
<path opacity="0.3" d="M135.337 233.026C135.428 233.207 135.459 233.411 135.427 233.611C135.394 233.81 135.3 233.994 135.157 234.137C135.015 234.28 134.83 234.374 134.631 234.407C134.432 234.439 134.227 234.408 134.047 234.317C133.867 234.232 133.723 234.087 133.638 233.908C133.546 233.728 133.513 233.523 133.545 233.323C133.577 233.123 133.67 232.939 133.813 232.796C133.956 232.652 134.141 232.558 134.341 232.526C134.54 232.494 134.745 232.526 134.925 232.617C135.107 232.701 135.253 232.846 135.337 233.026Z" fill="white"/>
<path opacity="0.3" d="M46.0887 235.842C46.1801 236.023 46.212 236.228 46.18 236.427C46.148 236.627 46.0537 236.812 45.9105 236.955C45.7673 237.097 45.5826 237.191 45.3827 237.223C45.1829 237.255 44.9783 237.222 44.798 237.13C44.6187 237.045 44.4743 236.901 44.389 236.721C44.2985 236.541 44.2672 236.336 44.2995 236.137C44.3318 235.938 44.426 235.753 44.5688 235.611C44.7116 235.468 44.8958 235.374 45.0952 235.341C45.2945 235.309 45.499 235.34 45.6796 235.431C45.8597 235.516 46.0044 235.662 46.0887 235.842Z" fill="white"/>
<path opacity="0.3" d="M3.67623 238.151C3.76699 238.331 3.79861 238.535 3.76658 238.734C3.73455 238.933 3.6405 239.118 3.49783 239.26C3.35517 239.403 3.17114 239.497 2.97194 239.529C2.77273 239.561 2.56848 239.529 2.38828 239.439C2.20622 239.356 2.05999 239.211 1.97649 239.03C1.88509 238.849 1.85312 238.644 1.88513 238.445C1.91713 238.245 2.01149 238.06 2.15469 237.917C2.29788 237.774 2.48259 237.681 2.6824 237.649C2.88222 237.617 3.08693 237.65 3.2672 237.742C3.44823 237.824 3.59341 237.97 3.67623 238.151Z" fill="white"/>
<path opacity="0.3" d="M6.07094 210.313C6.16272 210.494 6.19516 210.698 6.16359 210.898C6.13201 211.098 6.03806 211.283 5.89517 211.426C5.75227 211.569 5.56773 211.663 5.36798 211.695C5.16823 211.727 4.96351 211.695 4.78303 211.604C4.60152 211.52 4.45627 211.374 4.37399 211.192C4.28324 211.012 4.25162 210.808 4.28364 210.609C4.31567 210.409 4.40973 210.225 4.5524 210.083C4.69507 209.94 4.8791 209.846 5.07831 209.814C5.27751 209.782 5.48171 209.814 5.6619 209.904C5.84294 209.987 5.98812 210.132 6.07094 210.313Z" fill="white"/>
<path opacity="0.3" d="M56.4517 228.538C56.5425 228.718 56.5741 228.922 56.5421 229.122C56.5101 229.321 56.416 229.505 56.2733 229.647C56.1307 229.79 55.9466 229.884 55.7474 229.916C55.5482 229.948 55.344 229.917 55.1638 229.826C54.9828 229.743 54.8376 229.598 54.7548 229.417C54.663 229.237 54.6306 229.032 54.6621 228.832C54.6937 228.632 54.7877 228.448 54.9306 228.304C55.0735 228.161 55.2579 228.067 55.4577 228.035C55.6574 228.003 55.8622 228.035 56.0427 228.126C56.2234 228.211 56.3682 228.357 56.4517 228.538Z" fill="white"/>
<path opacity="0.3" d="M69.3783 287.689C69.4688 287.869 69.5001 288.074 69.4678 288.273C69.4355 288.472 69.3413 288.657 69.1984 288.799C69.0556 288.942 68.8714 289.036 68.6721 289.069C68.4727 289.101 68.2683 289.07 68.0877 288.979C67.9077 288.895 67.763 288.75 67.6786 288.57C67.5868 288.39 67.5544 288.185 67.586 287.985C67.6176 287.786 67.7115 287.601 67.8544 287.458C67.9973 287.314 68.1818 287.22 68.3815 287.188C68.5813 287.156 68.7861 287.188 68.9665 287.279C69.1478 287.363 69.2936 287.508 69.3783 287.689Z" fill="white"/>
<path opacity="0.3" d="M105.874 320.591C105.965 320.772 105.997 320.977 105.965 321.176C105.933 321.376 105.839 321.561 105.696 321.703C105.552 321.846 105.368 321.94 105.168 321.972C104.968 322.003 104.763 321.971 104.583 321.879C104.404 321.794 104.259 321.649 104.174 321.47C104.084 321.29 104.052 321.085 104.085 320.886C104.117 320.686 104.211 320.502 104.354 320.359C104.497 320.217 104.681 320.122 104.88 320.09C105.08 320.058 105.284 320.089 105.465 320.179C105.645 320.264 105.79 320.41 105.874 320.591Z" fill="white"/>
<path opacity="0.3" d="M185.449 342.574C185.54 342.755 185.572 342.959 185.54 343.159C185.508 343.359 185.414 343.543 185.271 343.686C185.127 343.829 184.943 343.923 184.743 343.955C184.543 343.986 184.338 343.954 184.158 343.862C183.977 343.779 183.832 343.634 183.749 343.453C183.658 343.273 183.627 343.068 183.659 342.869C183.691 342.67 183.785 342.486 183.927 342.343C184.07 342.201 184.254 342.107 184.453 342.075C184.652 342.043 184.857 342.074 185.037 342.165C185.219 342.247 185.365 342.393 185.449 342.574Z" fill="white"/>
<path opacity="0.3" d="M215.622 357.584C215.713 357.764 215.745 357.969 215.713 358.169C215.681 358.369 215.587 358.553 215.444 358.696C215.301 358.839 215.116 358.933 214.916 358.964C214.716 358.996 214.511 358.964 214.331 358.872C214.151 358.787 214.007 358.643 213.922 358.463C213.832 358.282 213.8 358.078 213.833 357.878C213.865 357.679 213.959 357.495 214.102 357.352C214.245 357.209 214.429 357.115 214.628 357.083C214.828 357.05 215.032 357.082 215.213 357.172C215.393 357.258 215.538 357.403 215.622 357.584Z" fill="white"/>
<path opacity="0.3" d="M274.174 307.511C274.265 307.691 274.296 307.896 274.264 308.095C274.231 308.294 274.137 308.479 273.994 308.621C273.852 308.764 273.667 308.858 273.468 308.891C273.269 308.923 273.064 308.892 272.884 308.801C272.704 308.716 272.559 308.57 272.475 308.389C272.383 308.209 272.351 308.004 272.383 307.804C272.415 307.605 272.51 307.42 272.653 307.277C272.796 307.134 272.981 307.04 273.18 307.009C273.38 306.977 273.585 307.01 273.765 307.101C273.945 307.186 274.09 307.331 274.174 307.511Z" fill="white"/>
<path opacity="0.3" d="M261.405 271.537C261.497 271.717 261.529 271.922 261.497 272.122C261.465 272.322 261.37 272.506 261.227 272.649C261.084 272.792 260.899 272.886 260.699 272.917C260.499 272.949 260.295 272.917 260.114 272.825C259.934 272.74 259.79 272.596 259.705 272.416C259.615 272.235 259.584 272.031 259.616 271.831C259.648 271.632 259.742 271.448 259.885 271.305C260.028 271.162 260.212 271.068 260.412 271.036C260.611 271.003 260.816 271.035 260.996 271.125C261.177 271.21 261.322 271.356 261.405 271.537Z" fill="white"/>
<path opacity="0.3" d="M266.911 243.418C267.002 243.598 267.033 243.802 267.001 244.001C266.969 244.201 266.875 244.385 266.732 244.527C266.59 244.67 266.406 244.764 266.206 244.796C266.007 244.828 265.803 244.797 265.623 244.706C265.442 244.623 265.297 244.478 265.214 244.297C265.123 244.117 265.091 243.912 265.123 243.713C265.156 243.514 265.25 243.33 265.392 243.187C265.535 243.044 265.719 242.95 265.918 242.918C266.117 242.886 266.322 242.918 266.502 243.009C266.683 243.092 266.828 243.237 266.911 243.418Z" fill="white"/>
<path opacity="0.3" d="M277.028 198.067C277.119 198.248 277.151 198.452 277.119 198.652C277.087 198.852 276.993 199.036 276.85 199.179C276.706 199.322 276.522 199.416 276.322 199.448C276.122 199.479 275.917 199.447 275.737 199.355C275.557 199.271 275.412 199.126 275.328 198.946C275.237 198.766 275.205 198.561 275.237 198.361C275.269 198.161 275.363 197.977 275.506 197.834C275.649 197.691 275.834 197.597 276.034 197.565C276.234 197.534 276.439 197.566 276.619 197.658C276.8 197.741 276.945 197.886 277.028 198.067Z" fill="white"/>
<path opacity="0.3" d="M113.624 191.727C113.716 191.907 113.748 192.112 113.716 192.312C113.685 192.511 113.591 192.696 113.448 192.839C113.305 192.983 113.121 193.077 112.921 193.109C112.721 193.141 112.516 193.109 112.336 193.018C112.154 192.934 112.009 192.788 111.927 192.606C111.836 192.426 111.804 192.221 111.836 192.022C111.868 191.823 111.962 191.639 112.105 191.496C112.248 191.354 112.432 191.26 112.631 191.227C112.83 191.195 113.034 191.227 113.215 191.318C113.396 191.401 113.541 191.546 113.624 191.727Z" fill="white"/>
<path opacity="0.3" d="M163.114 312.844C163.204 313.025 163.236 313.23 163.203 313.429C163.171 313.628 163.077 313.812 162.934 313.955C162.791 314.098 162.607 314.192 162.408 314.225C162.208 314.257 162.004 314.226 161.823 314.135C161.643 314.05 161.498 313.904 161.414 313.723C161.323 313.543 161.291 313.338 161.323 313.138C161.355 312.939 161.449 312.754 161.592 312.611C161.735 312.468 161.92 312.374 162.12 312.343C162.32 312.311 162.524 312.344 162.705 312.435C162.885 312.52 163.029 312.665 163.114 312.844Z" fill="white"/>
<path opacity="0.3" d="M121.057 372.926C121.147 373.106 121.178 373.311 121.146 373.51C121.114 373.71 121.019 373.894 120.877 374.037C120.734 374.179 120.55 374.274 120.35 374.306C120.151 374.338 119.946 374.307 119.766 374.216C119.586 374.132 119.441 373.987 119.357 373.807C119.267 373.627 119.236 373.423 119.268 373.224C119.301 373.025 119.395 372.842 119.537 372.699C119.679 372.557 119.863 372.462 120.061 372.43C120.26 372.397 120.464 372.427 120.645 372.517C120.825 372.601 120.971 372.746 121.057 372.926Z" fill="white"/>
<path opacity="0.3" d="M100.846 390.982C100.938 391.162 100.971 391.367 100.939 391.566C100.908 391.766 100.814 391.951 100.671 392.094C100.528 392.237 100.343 392.332 100.144 392.364C99.9438 392.396 99.739 392.364 99.5586 392.272C99.3779 392.188 99.2323 392.043 99.1468 391.863C99.0563 391.683 99.025 391.478 99.0573 391.279C99.0896 391.079 99.1838 390.895 99.3267 390.752C99.4695 390.61 99.6536 390.515 99.853 390.483C100.052 390.451 100.257 390.482 100.437 390.573C100.617 390.657 100.762 390.802 100.846 390.982Z" fill="white"/>
<path opacity="0.3" d="M353.011 16.5236C353.102 16.704 353.134 16.9088 353.102 17.1086C353.07 17.3083 352.976 17.4928 352.833 17.6357C352.69 17.7786 352.505 17.8726 352.305 17.9041C352.105 17.9357 351.901 17.9033 351.72 17.8115C351.539 17.7287 351.394 17.5835 351.311 17.4025C351.225 17.2234 351.197 17.022 351.23 16.8262C351.264 16.6304 351.357 16.4497 351.498 16.3092C351.638 16.1687 351.819 16.0754 352.015 16.042C352.21 16.0086 352.412 16.0368 352.591 16.1228C352.775 16.2014 352.924 16.3437 353.011 16.5236Z" fill="white"/>
<path opacity="0.3" d="M398.873 70.5329C398.964 70.7131 398.996 70.9174 398.964 71.1166C398.932 71.3158 398.838 71.4998 398.695 71.6425C398.552 71.7851 398.368 71.8792 398.169 71.9112C397.97 71.9432 397.766 71.9116 397.586 71.8209C397.404 71.7386 397.257 71.5933 397.174 71.4118C397.082 71.2314 397.05 71.0266 397.082 70.8268C397.114 70.6271 397.209 70.4426 397.352 70.2997C397.495 70.1568 397.68 70.0629 397.88 70.0313C398.079 69.9997 398.284 70.0321 398.464 70.1239C398.645 70.2067 398.791 70.3519 398.873 70.5329Z" fill="white"/>
<path opacity="0.3" d="M24.2173 131.148C24.3087 131.329 24.3406 131.533 24.3086 131.733C24.2766 131.933 24.1823 132.117 24.0391 132.26C23.8959 132.403 23.7112 132.497 23.5113 132.529C23.3115 132.56 23.1068 132.528 22.9265 132.436C22.7455 132.353 22.6003 132.208 22.5175 132.027C22.4261 131.847 22.3941 131.642 22.4261 131.442C22.4581 131.242 22.5525 131.058 22.6957 130.915C22.8389 130.772 23.0236 130.678 23.2234 130.647C23.4232 130.615 23.6279 130.647 23.8082 130.739C23.9892 130.822 24.1344 130.967 24.2173 131.148Z" fill="white"/>
<path opacity="0.3" d="M174.755 65.0659C174.846 65.2461 174.877 65.4503 174.845 65.6495C174.813 65.8487 174.719 66.0327 174.576 66.1754C174.434 66.3181 174.25 66.4121 174.05 66.4442C173.851 66.4762 173.647 66.4446 173.467 66.3538C173.285 66.2715 173.138 66.1263 173.055 65.9448C172.965 65.7642 172.933 65.5597 172.965 65.3603C172.998 65.1609 173.092 64.9768 173.235 64.8339C173.378 64.6911 173.562 64.5969 173.761 64.5646C173.961 64.5323 174.165 64.5636 174.346 64.6541C174.526 64.7388 174.671 64.8847 174.755 65.0659Z" fill="white"/>
<path opacity="0.3" d="M13.8248 7.00175C13.9146 7.18206 13.9456 7.38602 13.9133 7.58487C13.881 7.78371 13.7871 7.96738 13.6448 8.10998C13.5025 8.25258 13.319 8.34691 13.1202 8.37964C12.9214 8.41237 12.7174 8.38188 12.5369 8.29243C12.3558 8.20961 12.2106 8.0644 12.1278 7.88337C12.036 7.70309 12.0036 7.49842 12.0352 7.29861C12.0668 7.09879 12.1607 6.91409 12.3036 6.77089C12.4465 6.62769 12.631 6.53333 12.8307 6.50133C13.0305 6.46933 13.2353 6.50133 13.4158 6.59272C13.5968 6.67554 13.742 6.82073 13.8248 7.00175Z" fill="white"/>
<path opacity="0.3" d="M391.835 77.5892C391.926 77.7694 391.958 77.9736 391.926 78.1728C391.894 78.372 391.8 78.556 391.657 78.6987C391.514 78.8414 391.33 78.9354 391.131 78.9674C390.932 78.9994 390.728 78.9679 390.548 78.8771C390.365 78.7948 390.219 78.6495 390.136 78.468C390.045 78.2878 390.013 78.0836 390.045 77.8844C390.077 77.6852 390.171 77.5012 390.314 77.3585C390.457 77.2159 390.641 77.1218 390.84 77.0898C391.039 77.0578 391.243 77.0894 391.424 77.1802C391.606 77.2624 391.752 77.4077 391.835 77.5892Z" fill="white"/>
<path opacity="0.3" d="M384.651 120.369C384.743 120.549 384.775 120.754 384.744 120.954C384.712 121.154 384.618 121.338 384.475 121.481C384.332 121.625 384.148 121.719 383.948 121.751C383.748 121.783 383.543 121.751 383.363 121.66C383.183 121.575 383.038 121.43 382.954 121.251C382.862 121.07 382.83 120.866 382.861 120.666C382.893 120.466 382.987 120.281 383.13 120.138C383.273 119.995 383.457 119.901 383.657 119.869C383.857 119.837 384.061 119.868 384.242 119.96C384.423 120.043 384.568 120.188 384.651 120.369Z" fill="white"/>
<path opacity="0.3" d="M125.425 19.5965C125.515 19.7767 125.547 19.981 125.515 20.1802C125.483 20.3794 125.389 20.5634 125.246 20.7061C125.103 20.8487 124.919 20.9428 124.72 20.9748C124.521 21.0068 124.317 20.9752 124.137 20.8844C123.956 20.8016 123.81 20.6564 123.728 20.4754C123.637 20.2952 123.605 20.091 123.637 19.8918C123.669 19.6926 123.763 19.5085 123.906 19.3659C124.049 19.2232 124.233 19.1291 124.432 19.0971C124.631 19.0651 124.835 19.0967 125.015 19.1875C125.197 19.2703 125.342 19.4155 125.425 19.5965Z" fill="white"/>
<path opacity="0.3" d="M215.913 61.725C216.004 61.9056 216.035 62.11 216.003 62.3094C215.971 62.5088 215.876 62.6929 215.734 62.8358C215.591 62.9786 215.407 63.0728 215.207 63.1051C215.008 63.1374 214.803 63.1061 214.623 63.0157C214.444 62.9303 214.299 62.7858 214.214 62.6066C214.122 62.4263 214.09 62.2216 214.121 62.0218C214.153 61.822 214.247 61.6373 214.39 61.4941C214.532 61.3509 214.717 61.2565 214.917 61.2245C215.116 61.1925 215.321 61.2245 215.502 61.3159C215.683 61.3994 215.829 61.5443 215.913 61.725Z" fill="white"/>
<path opacity="0.3" d="M60.6531 50.9653C60.7439 51.1455 60.7755 51.3498 60.7435 51.549C60.7114 51.7482 60.6174 51.9322 60.4747 52.0748C60.332 52.2175 60.148 52.3115 59.9488 52.3436C59.7496 52.3756 59.5454 52.344 59.3652 52.2532C59.1831 52.1709 59.0369 52.0257 58.9534 51.8442C58.8629 51.6636 58.8316 51.4591 58.8639 51.2597C58.8962 51.0603 58.9904 50.8762 59.1332 50.7334C59.276 50.5906 59.4602 50.4963 59.6596 50.464C59.859 50.4317 60.0635 50.463 60.2441 50.5535C60.4256 50.637 60.5708 50.7832 60.6531 50.9653Z" fill="white"/>
<path opacity="0.3" d="M170.528 57.1287C170.619 57.3089 170.65 57.5132 170.618 57.7124C170.586 57.9116 170.492 58.0956 170.35 58.2383C170.207 58.3809 170.023 58.475 169.824 58.507C169.624 58.5391 169.42 58.5074 169.24 58.4167C169.059 58.3339 168.914 58.1887 168.831 58.0076C168.74 57.8274 168.709 57.6232 168.741 57.424C168.773 57.2248 168.867 57.0408 169.009 56.8981C169.152 56.7554 169.336 56.6614 169.535 56.6294C169.734 56.5973 169.939 56.629 170.119 56.7197C170.3 56.8025 170.445 56.9477 170.528 57.1287Z" fill="white"/>
<path opacity="0.3" d="M46.313 346.565C46.4034 346.746 46.4347 346.95 46.4025 347.15C46.3702 347.349 46.2759 347.533 46.1331 347.676C45.9903 347.819 45.8061 347.913 45.6067 347.945C45.4073 347.978 45.2028 347.946 45.0222 347.856C44.8421 347.77 44.6975 347.625 44.6132 347.444C44.5218 347.264 44.4898 347.059 44.5218 346.859C44.5538 346.659 44.6482 346.475 44.7914 346.332C44.9346 346.189 45.1193 346.095 45.3191 346.064C45.519 346.032 45.7237 346.064 45.9039 346.156C46.085 346.239 46.2302 346.384 46.313 346.565Z" fill="white"/>
<path opacity="0.3" d="M126.513 280.091C126.604 280.271 126.636 280.476 126.604 280.676C126.572 280.876 126.478 281.06 126.335 281.203C126.192 281.346 126.007 281.44 125.807 281.471C125.607 281.503 125.403 281.471 125.222 281.379C125.042 281.294 124.898 281.15 124.813 280.97C124.722 280.79 124.689 280.585 124.721 280.385C124.752 280.185 124.846 280 124.989 279.857C125.132 279.714 125.317 279.62 125.516 279.588C125.716 279.556 125.921 279.588 126.101 279.679C126.283 279.764 126.428 279.91 126.513 280.091Z" fill="white"/>
<path opacity="0.3" d="M181.399 252.199C181.49 252.38 181.521 252.584 181.489 252.784C181.456 252.983 181.362 253.167 181.219 253.31C181.077 253.453 180.892 253.547 180.693 253.579C180.494 253.612 180.289 253.58 180.109 253.49C179.929 253.404 179.785 253.26 179.699 253.081C179.609 252.9 179.578 252.696 179.61 252.496C179.642 252.297 179.737 252.113 179.879 251.97C180.022 251.827 180.206 251.733 180.406 251.701C180.605 251.668 180.81 251.7 180.99 251.79C181.169 251.875 181.314 252.02 181.399 252.199Z" fill="white"/>
<path opacity="0.3" d="M202.964 198.255C203.054 198.436 203.086 198.64 203.054 198.839C203.022 199.038 202.928 199.222 202.785 199.365C202.642 199.508 202.458 199.602 202.259 199.634C202.06 199.666 201.856 199.634 201.676 199.543C201.495 199.461 201.349 199.315 201.267 199.134C201.175 198.954 201.142 198.749 201.174 198.55C201.205 198.35 201.299 198.165 201.442 198.022C201.585 197.879 201.77 197.784 201.969 197.752C202.169 197.72 202.374 197.752 202.554 197.844C202.735 197.928 202.88 198.074 202.964 198.255Z" fill="white"/>
<path opacity="0.3" d="M204.85 156.277C204.942 156.457 204.974 156.662 204.943 156.861C204.911 157.061 204.817 157.246 204.674 157.389C204.532 157.532 204.347 157.627 204.147 157.659C203.947 157.691 203.743 157.659 203.562 157.567C203.381 157.485 203.236 157.339 203.153 157.158C203.061 156.978 203.029 156.773 203.061 156.574C203.092 156.374 203.186 156.189 203.329 156.046C203.472 155.903 203.656 155.808 203.856 155.776C204.056 155.744 204.261 155.776 204.441 155.868C204.622 155.95 204.767 156.096 204.85 156.277Z" fill="white"/>
<path opacity="0.3" d="M231.944 185.819C232.035 185.999 232.066 186.203 232.034 186.402C232.002 186.601 231.908 186.786 231.766 186.928C231.623 187.071 231.439 187.165 231.24 187.197C231.04 187.229 230.836 187.197 230.656 187.107C230.475 187.024 230.33 186.879 230.247 186.698C230.156 186.517 230.125 186.313 230.157 186.114C230.189 185.915 230.283 185.731 230.425 185.588C230.568 185.445 230.752 185.351 230.951 185.319C231.15 185.287 231.355 185.319 231.535 185.41C231.716 185.492 231.861 185.638 231.944 185.819Z" fill="white"/>
<path opacity="0.3" d="M126.321 168.501C126.413 168.681 126.445 168.885 126.413 169.085C126.382 169.285 126.288 169.47 126.145 169.613C126.002 169.756 125.818 169.851 125.618 169.883C125.418 169.915 125.213 169.883 125.033 169.791C124.853 169.707 124.708 169.562 124.624 169.382C124.532 169.202 124.5 168.997 124.531 168.797C124.563 168.598 124.657 168.413 124.8 168.27C124.943 168.126 125.127 168.032 125.327 168C125.527 167.968 125.731 168 125.912 168.091C126.093 168.174 126.238 168.319 126.321 168.501Z" fill="white"/>
<path opacity="0.3" d="M20.2499 155.627C20.3403 155.808 20.3716 156.012 20.3393 156.211C20.3071 156.411 20.2128 156.595 20.07 156.738C19.9272 156.881 19.743 156.975 19.5436 157.007C19.3442 157.039 19.1398 157.008 18.9592 156.918C18.7793 156.833 18.6346 156.689 18.5502 156.509C18.4604 156.328 18.4294 156.124 18.4617 155.925C18.494 155.727 18.5879 155.543 18.7302 155.4C18.8725 155.258 19.056 155.163 19.2548 155.131C19.4535 155.098 19.6576 155.128 19.8381 155.218C20.0187 155.302 20.1644 155.447 20.2499 155.627Z" fill="white"/>
<path opacity="0.3" d="M9.11973 144.041C9.21049 144.221 9.24211 144.426 9.21008 144.625C9.17805 144.824 9.084 145.008 8.94133 145.151C8.79866 145.293 8.61464 145.387 8.41544 145.419C8.21623 145.451 8.01205 145.42 7.83185 145.329C7.65082 145.246 7.50564 145.101 7.42282 144.92C7.33207 144.74 7.30044 144.536 7.33247 144.336C7.3645 144.137 7.45849 143.953 7.60116 143.81C7.74382 143.668 7.92785 143.574 8.12705 143.542C8.32625 143.51 8.53051 143.541 8.7107 143.632C8.89173 143.715 9.03691 143.86 9.11973 144.041Z" fill="white"/>
<path opacity="0.3" d="M44.9985 212.008C45.088 212.188 45.1185 212.392 45.0858 212.591C45.0531 212.79 44.9587 212.973 44.8161 213.116C44.6735 213.258 44.4898 213.352 44.291 213.384C44.0921 213.416 43.8881 213.386 43.7078 213.296C43.5268 213.213 43.3816 213.068 43.2988 212.887C43.2074 212.706 43.1754 212.501 43.2074 212.302C43.2394 212.102 43.3338 211.917 43.477 211.775C43.6202 211.632 43.8049 211.538 44.0047 211.506C44.2045 211.475 44.4092 211.507 44.5895 211.599C44.7705 211.682 44.9157 211.827 44.9985 212.008Z" fill="white"/>
<path opacity="0.3" d="M152.215 176.374C152.306 176.555 152.337 176.76 152.305 176.959C152.272 177.158 152.178 177.343 152.035 177.485C151.893 177.628 151.708 177.722 151.509 177.755C151.31 177.787 151.105 177.756 150.925 177.665C150.744 177.58 150.599 177.435 150.516 177.253C150.424 177.073 150.392 176.868 150.424 176.668C150.456 176.469 150.551 176.284 150.694 176.141C150.837 175.998 151.022 175.904 151.221 175.873C151.421 175.841 151.626 175.874 151.806 175.965C151.986 176.05 152.131 176.195 152.215 176.374Z" fill="white"/>
<path opacity="0.3" d="M249.835 129.379C249.925 129.559 249.957 129.764 249.925 129.963C249.893 130.162 249.799 130.346 249.656 130.489C249.513 130.631 249.329 130.725 249.13 130.757C248.931 130.789 248.727 130.758 248.547 130.667C248.366 130.584 248.22 130.439 248.138 130.258C248.047 130.078 248.015 129.874 248.047 129.674C248.079 129.475 248.173 129.291 248.316 129.149C248.459 129.006 248.643 128.912 248.842 128.88C249.041 128.848 249.245 128.879 249.426 128.97C249.607 129.053 249.752 129.198 249.835 129.379Z" fill="white"/>
<path opacity="0.3" d="M321.84 159.941C321.931 160.121 321.963 160.326 321.931 160.525C321.899 160.724 321.805 160.908 321.662 161.051C321.519 161.193 321.335 161.287 321.136 161.319C320.937 161.351 320.733 161.32 320.552 161.229C320.37 161.147 320.224 161.002 320.141 160.82C320.049 160.64 320.017 160.435 320.049 160.235C320.081 160.035 320.176 159.851 320.319 159.708C320.462 159.565 320.647 159.471 320.846 159.439C321.046 159.408 321.251 159.44 321.431 159.532C321.612 159.615 321.757 159.76 321.84 159.941Z" fill="white"/>
<path opacity="0.3" d="M324.122 150.188C324.214 150.368 324.246 150.573 324.214 150.773C324.183 150.972 324.089 151.157 323.946 151.3C323.803 151.444 323.619 151.538 323.419 151.57C323.219 151.602 323.014 151.57 322.834 151.479C322.652 151.395 322.507 151.249 322.425 151.067C322.334 150.887 322.302 150.682 322.334 150.483C322.366 150.284 322.46 150.1 322.603 149.957C322.746 149.815 322.93 149.72 323.129 149.688C323.328 149.656 323.533 149.688 323.713 149.779C323.894 149.862 324.039 150.007 324.122 150.188Z" fill="white"/>
<path opacity="0.3" d="M273.38 44.9293C273.471 45.1096 273.504 45.3142 273.472 45.5141C273.441 45.7139 273.347 45.8986 273.204 46.0418C273.061 46.185 272.877 46.2793 272.677 46.3113C272.477 46.3433 272.272 46.3114 272.092 46.22C271.911 46.1357 271.765 45.9911 271.68 45.8109C271.59 45.6304 271.558 45.4259 271.59 45.2265C271.623 45.0271 271.717 44.8429 271.86 44.7001C272.003 44.5573 272.187 44.4631 272.386 44.4308C272.586 44.3985 272.79 44.4298 272.971 44.5203C273.151 44.6047 273.295 44.7494 273.38 44.9293Z" fill="white"/>
<path opacity="0.3" d="M297.174 16.7556C297.266 16.9359 297.299 17.1406 297.267 17.3404C297.235 17.5402 297.141 17.7249 296.999 17.8681C296.856 18.0113 296.671 18.1057 296.471 18.1377C296.272 18.1697 296.067 18.1377 295.886 18.0463C295.707 17.9619 295.562 17.8172 295.477 17.6373C295.386 17.457 295.353 17.2523 295.385 17.0525C295.416 16.8527 295.51 16.668 295.653 16.5248C295.796 16.3816 295.981 16.2872 296.18 16.2552C296.38 16.2232 296.585 16.2552 296.765 16.3466C296.946 16.4294 297.091 16.5746 297.174 16.7556Z" fill="white"/>
<path opacity="0.3" d="M378.822 226.668C378.912 226.848 378.944 227.053 378.911 227.252C378.879 227.451 378.785 227.636 378.642 227.778C378.499 227.921 378.315 228.015 378.116 228.048C377.916 228.08 377.712 228.049 377.531 227.958C377.352 227.873 377.207 227.728 377.122 227.549C377.03 227.369 376.998 227.164 377.029 226.964C377.061 226.765 377.155 226.58 377.298 226.437C377.441 226.293 377.625 226.199 377.825 226.167C378.025 226.135 378.229 226.167 378.41 226.258C378.591 226.342 378.737 226.487 378.822 226.668Z" fill="white"/>
<path opacity="0.3" d="M280.731 282.131C280.821 282.311 280.852 282.515 280.819 282.714C280.787 282.913 280.693 283.096 280.551 283.239C280.409 283.381 280.225 283.476 280.026 283.509C279.828 283.541 279.624 283.511 279.443 283.421C279.262 283.337 279.116 283.191 279.031 283.009C278.94 282.829 278.908 282.624 278.94 282.425C278.972 282.225 279.066 282.04 279.209 281.897C279.353 281.754 279.537 281.661 279.737 281.629C279.937 281.597 280.142 281.63 280.322 281.722C280.503 281.804 280.648 281.95 280.731 282.131Z" fill="white"/>
<path opacity="0.3" d="M299.188 225.257C299.278 225.438 299.31 225.642 299.277 225.842C299.245 226.041 299.151 226.225 299.008 226.368C298.865 226.511 298.681 226.605 298.482 226.637C298.282 226.67 298.078 226.638 297.897 226.548C297.717 226.463 297.572 226.317 297.488 226.136C297.397 225.956 297.365 225.751 297.397 225.551C297.429 225.351 297.523 225.167 297.666 225.024C297.81 224.881 297.994 224.787 298.194 224.756C298.394 224.724 298.599 224.756 298.779 224.848C298.959 224.933 299.104 225.077 299.188 225.257Z" fill="white"/>
<path opacity="0.3" d="M360.36 256.128C360.452 256.309 360.484 256.513 360.453 256.713C360.421 256.913 360.327 257.098 360.184 257.241C360.041 257.384 359.857 257.478 359.657 257.51C359.457 257.542 359.252 257.51 359.072 257.419C358.89 257.334 358.745 257.189 358.66 257.007C358.569 256.827 358.537 256.622 358.569 256.422C358.601 256.223 358.695 256.038 358.838 255.895C358.981 255.752 359.166 255.658 359.366 255.627C359.566 255.595 359.771 255.628 359.951 255.719C360.131 255.804 360.275 255.949 360.36 256.128Z" fill="white"/>
<path opacity="0.3" d="M362.137 311.675C362.228 311.855 362.26 312.059 362.228 312.259C362.196 312.458 362.102 312.642 361.959 312.784C361.816 312.927 361.632 313.021 361.433 313.053C361.234 313.085 361.03 313.054 360.849 312.963C360.668 312.88 360.523 312.735 360.44 312.554C360.35 312.374 360.318 312.169 360.35 311.97C360.382 311.771 360.476 311.587 360.619 311.444C360.761 311.302 360.945 311.208 361.145 311.175C361.344 311.143 361.548 311.175 361.728 311.266C361.909 311.349 362.055 311.494 362.137 311.675Z" fill="white"/>
<path opacity="0.3" d="M332.811 336.608C332.902 336.788 332.933 336.992 332.901 337.191C332.869 337.39 332.775 337.574 332.633 337.717C332.49 337.86 332.306 337.954 332.107 337.986C331.908 338.018 331.703 337.986 331.523 337.895C331.342 337.813 331.197 337.667 331.114 337.486C331.022 337.306 330.99 337.101 331.022 336.902C331.053 336.702 331.147 336.517 331.29 336.374C331.433 336.231 331.617 336.136 331.817 336.104C332.017 336.072 332.222 336.104 332.402 336.196C332.584 336.279 332.729 336.425 332.811 336.608Z" fill="white"/>
<path opacity="0.3" d="M319.106 373.446C319.197 373.626 319.228 373.831 319.196 374.03C319.164 374.23 319.069 374.414 318.926 374.557C318.784 374.699 318.599 374.794 318.4 374.826C318.201 374.858 317.996 374.827 317.816 374.736C317.636 374.652 317.491 374.507 317.407 374.327C317.316 374.147 317.285 373.942 317.317 373.743C317.349 373.544 317.444 373.359 317.586 373.217C317.729 373.074 317.913 372.979 318.113 372.947C318.312 372.915 318.517 372.946 318.697 373.037C318.877 373.122 319.021 373.266 319.106 373.446Z" fill="white"/>
<path opacity="0.3" d="M373.391 398.593C373.482 398.773 373.514 398.978 373.482 399.177C373.449 399.376 373.355 399.56 373.213 399.703C373.07 399.845 372.886 399.939 372.687 399.972C372.488 400.004 372.283 399.972 372.103 399.881C371.921 399.799 371.775 399.654 371.691 399.472C371.6 399.292 371.568 399.087 371.6 398.887C371.632 398.687 371.726 398.503 371.87 398.36C372.013 398.217 372.197 398.123 372.397 398.092C372.597 398.06 372.802 398.092 372.982 398.184C373.163 398.267 373.308 398.412 373.391 398.593Z" fill="white"/>
<path opacity="0.3" d="M336.559 384.462C336.651 384.642 336.683 384.847 336.652 385.047C336.62 385.247 336.526 385.431 336.383 385.574C336.24 385.718 336.056 385.812 335.856 385.844C335.656 385.876 335.452 385.844 335.271 385.753C335.09 385.67 334.945 385.525 334.862 385.344C334.77 385.163 334.738 384.959 334.77 384.759C334.801 384.559 334.895 384.374 335.038 384.231C335.181 384.088 335.365 383.994 335.565 383.962C335.765 383.93 335.97 383.962 336.15 384.053C336.331 384.136 336.476 384.281 336.559 384.462Z" fill="white"/>
<path opacity="0.3" d="M358.427 394.953C358.518 395.134 358.55 395.338 358.518 395.538C358.486 395.738 358.392 395.922 358.248 396.065C358.105 396.208 357.92 396.302 357.721 396.334C357.521 396.365 357.316 396.333 357.136 396.241C356.956 396.157 356.811 396.012 356.727 395.832C356.636 395.651 356.605 395.447 356.637 395.248C356.67 395.048 356.764 394.864 356.907 394.721C357.05 394.578 357.234 394.484 357.433 394.452C357.632 394.42 357.837 394.451 358.018 394.541C358.198 394.627 358.342 394.772 358.427 394.953Z" fill="white"/>
<path opacity="0.3" d="M163.253 396.451C163.344 396.632 163.375 396.836 163.343 397.036C163.31 397.235 163.216 397.419 163.073 397.562C162.931 397.705 162.746 397.799 162.547 397.831C162.348 397.864 162.143 397.832 161.963 397.742C161.783 397.657 161.638 397.513 161.554 397.333C161.462 397.153 161.429 396.948 161.461 396.748C161.493 396.548 161.586 396.364 161.729 396.22C161.872 396.077 162.057 395.983 162.257 395.951C162.456 395.919 162.661 395.951 162.841 396.042C163.022 396.126 163.168 396.271 163.253 396.451Z" fill="white"/>
<path opacity="0.3" d="M131.823 298.611C131.914 298.791 131.946 298.996 131.914 299.196C131.882 299.396 131.788 299.58 131.645 299.723C131.501 299.866 131.317 299.96 131.117 299.991C130.917 300.023 130.712 299.991 130.532 299.899C130.351 299.816 130.206 299.671 130.123 299.49C130.032 299.309 130 299.104 130.032 298.905C130.064 298.705 130.158 298.52 130.301 298.378C130.444 298.235 130.629 298.141 130.829 298.109C131.029 298.078 131.233 298.11 131.414 298.202C131.595 298.285 131.74 298.43 131.823 298.611Z" fill="white"/>
<path opacity="0.3" d="M187.407 377.232C187.497 377.412 187.529 377.616 187.497 377.815C187.465 378.015 187.371 378.199 187.228 378.341C187.086 378.484 186.902 378.578 186.702 378.61C186.503 378.642 186.299 378.61 186.119 378.52C185.937 378.437 185.79 378.292 185.707 378.111C185.616 377.93 185.584 377.725 185.616 377.526C185.648 377.326 185.742 377.141 185.885 376.998C186.028 376.856 186.213 376.762 186.413 376.73C186.613 376.698 186.817 376.731 186.998 376.823C187.179 376.905 187.324 377.051 187.407 377.232Z" fill="white"/>
<path opacity="0.3" d="M42.1334 267.748C42.2242 267.928 42.2558 268.132 42.2238 268.331C42.1917 268.53 42.0977 268.714 41.955 268.857C41.8123 269 41.6283 269.094 41.4291 269.126C41.2299 269.158 41.0257 269.126 40.8455 269.036C40.6645 268.953 40.5193 268.808 40.4365 268.626C40.3457 268.446 40.3141 268.242 40.3461 268.043C40.3782 267.844 40.4722 267.66 40.6149 267.517C40.7576 267.374 40.9416 267.28 41.1408 267.248C41.34 267.216 41.5442 267.248 41.7244 267.339C41.9054 267.421 42.0506 267.567 42.1334 267.748Z" fill="white"/>
<path opacity="0.3" d="M22.4301 311.846C22.5209 312.027 22.5525 312.231 22.5204 312.43C22.4884 312.629 22.3944 312.813 22.2518 312.956C22.1091 313.099 21.9251 313.193 21.7259 313.225C21.5267 313.257 21.3224 313.225 21.1422 313.134C20.9601 313.052 20.8139 312.907 20.7304 312.725C20.639 312.545 20.607 312.34 20.639 312.14C20.671 311.941 20.7653 311.756 20.9085 311.613C21.0517 311.47 21.2365 311.376 21.4363 311.345C21.6361 311.313 21.8408 311.346 22.0211 311.437C22.2021 311.52 22.3473 311.665 22.4301 311.846Z" fill="white"/>
<path opacity="0.3" d="M65.4345 229.248C65.5263 229.429 65.5587 229.633 65.5271 229.833C65.4956 230.033 65.4016 230.218 65.2587 230.361C65.1158 230.504 64.9313 230.598 64.7315 230.63C64.5318 230.662 64.3271 230.63 64.1466 230.539C63.9652 230.454 63.8194 230.309 63.7348 230.127C63.6453 229.947 63.6148 229.743 63.6475 229.544C63.6803 229.345 63.7746 229.162 63.9172 229.019C64.0598 228.877 64.2435 228.783 64.4423 228.751C64.6412 228.718 64.8451 228.749 65.0254 228.839C65.2065 228.922 65.3517 229.067 65.4345 229.248Z" fill="white"/>
<path opacity="0.3" d="M141.297 166.118C141.389 166.298 141.422 166.503 141.39 166.703C141.359 166.903 141.265 167.087 141.122 167.23C140.979 167.374 140.794 167.468 140.594 167.5C140.395 167.532 140.19 167.5 140.01 167.409C139.83 167.324 139.685 167.18 139.6 167C139.509 166.819 139.476 166.615 139.508 166.415C139.539 166.215 139.633 166.03 139.776 165.887C139.919 165.744 140.104 165.65 140.303 165.618C140.503 165.586 140.708 165.618 140.888 165.709C141.069 165.792 141.215 165.937 141.297 166.118Z" fill="white"/>
<path opacity="0.3" d="M164.723 85.8357C164.813 86.0163 164.844 86.2208 164.812 86.4201C164.78 86.6195 164.685 86.8037 164.543 86.9465C164.4 87.0893 164.216 87.1836 164.016 87.2158C163.817 87.2481 163.612 87.2168 163.432 87.1264C163.252 87.0419 163.107 86.8972 163.023 86.7173C162.933 86.537 162.902 86.333 162.934 86.1342C162.967 85.9353 163.061 85.7517 163.203 85.6091C163.345 85.4665 163.529 85.3721 163.727 85.3394C163.926 85.3067 164.13 85.3372 164.311 85.4266C164.491 85.5109 164.637 85.6556 164.723 85.8357Z" fill="white"/>
<path opacity="0.3" d="M141.369 101.579C141.459 101.76 141.49 101.964 141.458 102.164C141.426 102.363 141.331 102.547 141.189 102.69C141.046 102.833 140.862 102.927 140.662 102.959C140.463 102.992 140.258 102.96 140.078 102.87C139.898 102.785 139.753 102.641 139.669 102.461C139.577 102.28 139.545 102.076 139.576 101.876C139.608 101.676 139.702 101.491 139.845 101.348C139.988 101.205 140.172 101.111 140.372 101.079C140.571 101.047 140.776 101.079 140.957 101.17C141.137 101.254 141.283 101.399 141.369 101.579Z" fill="white"/>
<path opacity="0.3" d="M89.9869 125.27C90.0787 125.45 90.1111 125.655 90.0795 125.854C90.048 126.054 89.954 126.239 89.8111 126.382C89.6682 126.525 89.4837 126.62 89.284 126.652C89.0842 126.684 88.8795 126.652 88.699 126.56C88.5179 126.477 88.3728 126.332 88.2899 126.151C88.1982 125.971 88.1657 125.766 88.1973 125.566C88.2289 125.367 88.3228 125.182 88.4657 125.039C88.6086 124.896 88.7931 124.801 88.9929 124.769C89.1927 124.737 89.3974 124.769 89.5779 124.861C89.7578 124.945 89.9025 125.09 89.9869 125.27Z" fill="white"/>
<path opacity="0.3" d="M84.4462 147.885C84.5376 148.066 84.5695 148.271 84.5375 148.47C84.5055 148.67 84.4112 148.855 84.268 148.998C84.1248 149.14 83.9401 149.234 83.7403 149.266C83.5405 149.298 83.3357 149.265 83.1555 149.173C82.9744 149.091 82.8293 148.945 82.7464 148.764C82.657 148.584 82.6265 148.38 82.6593 148.181C82.692 147.982 82.7863 147.799 82.9289 147.656C83.0715 147.514 83.2552 147.42 83.454 147.388C83.6529 147.356 83.8568 147.387 84.0371 147.476C84.2182 147.559 84.3634 147.704 84.4462 147.885Z" fill="white"/>
<path opacity="0.3" d="M75.5886 167.412C75.6794 167.592 75.711 167.796 75.679 167.995C75.6469 168.194 75.5529 168.378 75.4102 168.521C75.2676 168.664 75.0835 168.758 74.8843 168.79C74.6851 168.822 74.4809 168.79 74.3007 168.699C74.1201 168.615 73.9744 168.471 73.8889 168.29C73.7985 168.11 73.7672 167.905 73.7995 167.706C73.8318 167.507 73.9259 167.322 74.0688 167.18C74.2116 167.037 74.3958 166.943 74.5951 166.91C74.7945 166.878 74.999 166.909 75.1796 167C75.3597 167.085 75.5043 167.231 75.5886 167.412Z" fill="white"/>
<path opacity="0.3" d="M76.0434 106.448C76.1338 106.629 76.1651 106.833 76.1328 107.033C76.1006 107.232 76.0064 107.416 75.8635 107.559C75.7207 107.702 75.5366 107.796 75.3372 107.828C75.1378 107.861 74.9333 107.829 74.7527 107.739C74.5726 107.653 74.428 107.508 74.3437 107.327C74.2523 107.147 74.2203 106.942 74.2523 106.742C74.2843 106.542 74.3787 106.358 74.5219 106.215C74.6651 106.072 74.8498 105.978 75.0496 105.947C75.2494 105.915 75.4541 105.947 75.6343 106.039C75.8136 106.125 75.958 106.269 76.0434 106.448Z" fill="white"/>
<path opacity="0.3" d="M87.5242 76.4478C87.615 76.628 87.6466 76.8322 87.6146 77.0314C87.5825 77.2306 87.4885 77.4146 87.3458 77.5573C87.2031 77.6999 87.0191 77.794 86.8199 77.826C86.6207 77.858 86.4165 77.8264 86.2363 77.7357C86.0551 77.6522 85.9092 77.5073 85.8245 77.3266C85.734 77.146 85.7027 76.9416 85.735 76.7422C85.7673 76.5428 85.8615 76.3586 86.0043 76.2158C86.1471 76.073 86.3313 75.9788 86.5307 75.9465C86.7301 75.9142 86.9346 75.9455 87.1152 76.036C87.2958 76.1207 87.4407 76.2665 87.5242 76.4478Z" fill="white"/>
<path opacity="0.3" d="M109.655 59.4332C109.746 59.6134 109.777 59.8176 109.745 60.0168C109.713 60.216 109.619 60.4 109.476 60.5427C109.334 60.6854 109.15 60.7794 108.951 60.8115C108.751 60.8435 108.547 60.8119 108.367 60.7211C108.186 60.6383 108.041 60.4931 107.958 60.3121C107.866 60.1318 107.834 59.9271 107.865 59.7273C107.897 59.5275 107.991 59.3427 108.134 59.1995C108.277 59.0563 108.461 58.962 108.661 58.93C108.861 58.898 109.065 58.93 109.246 59.0214C109.427 59.1049 109.573 59.2511 109.655 59.4332Z" fill="white"/>
<path opacity="0.3" d="M126.604 32.6525C126.694 32.8331 126.726 33.0376 126.693 33.237C126.661 33.4364 126.567 33.6205 126.424 33.7634C126.281 33.9062 126.097 34.0004 125.898 34.0327C125.698 34.065 125.494 34.0337 125.313 33.9432C125.133 33.8577 124.989 33.7121 124.904 33.5314C124.813 33.3509 124.781 33.1462 124.813 32.9464C124.845 32.7467 124.939 32.5622 125.082 32.4193C125.226 32.2764 125.41 32.1824 125.61 32.1509C125.81 32.1193 126.015 32.1517 126.195 32.2435C126.375 32.3279 126.52 32.4726 126.604 32.6525Z" fill="white"/>
<path opacity="0.3" d="M45.8944 5.02908C45.9849 5.20968 46.0162 5.41417 45.9839 5.61356C45.9516 5.81294 45.8574 5.99711 45.7145 6.13993C45.5717 6.28275 45.3876 6.37698 45.1882 6.40926C44.9888 6.44154 44.7843 6.41024 44.6037 6.31979C44.4227 6.23697 44.2775 6.09178 44.1947 5.91075C44.1048 5.73044 44.0739 5.52644 44.1062 5.32759C44.1385 5.12875 44.2325 4.94507 44.3748 4.80247C44.5171 4.65986 44.7005 4.56553 44.8993 4.5328C45.0981 4.50007 45.3021 4.5306 45.4826 4.62004C45.6633 4.70433 45.8089 4.84897 45.8944 5.02908Z" fill="white"/>
<path opacity="0.3" d="M158.46 1.23418C158.551 1.41477 158.582 1.61926 158.55 1.81864C158.518 2.01802 158.423 2.20216 158.281 2.34498C158.138 2.4878 157.954 2.58206 157.754 2.61434C157.555 2.64662 157.35 2.61532 157.17 2.52487C156.989 2.44205 156.843 2.29683 156.761 2.1158C156.669 1.93552 156.636 1.73085 156.668 1.53103C156.7 1.33121 156.794 1.14651 156.936 1.00331C157.079 0.860116 157.264 0.765753 157.464 0.733753C157.663 0.701752 157.868 0.733754 158.049 0.825147C158.229 0.909428 158.375 1.05407 158.46 1.23418Z" fill="white"/>
<path opacity="0.3" d="M259.568 20.2907C259.659 20.4711 259.691 20.6759 259.659 20.8756C259.627 21.0754 259.533 21.2599 259.39 21.4028C259.246 21.5457 259.062 21.6397 258.862 21.6713C258.662 21.7028 258.457 21.6704 258.277 21.5786C258.097 21.4942 257.952 21.3495 257.868 21.1696C257.776 20.9893 257.744 20.7846 257.775 20.5848C257.807 20.385 257.901 20.2002 258.044 20.057C258.187 19.9138 258.371 19.8195 258.571 19.7875C258.771 19.7555 258.975 19.7874 259.156 19.8788C259.337 19.9634 259.483 20.1092 259.568 20.2907Z" fill="white"/>
<path opacity="0.3" d="M303.118 89.9153C303.209 90.0958 303.241 90.3005 303.209 90.5003C303.177 90.7 303.083 90.8845 302.939 91.0274C302.796 91.1703 302.612 91.2642 302.412 91.2958C302.212 91.3274 302.007 91.295 301.827 91.2032C301.646 91.1204 301.501 90.9752 301.418 90.7942C301.327 90.6137 301.295 90.4089 301.327 90.2092C301.359 90.0094 301.453 89.8249 301.596 89.682C301.739 89.5391 301.924 89.4452 302.124 89.4136C302.324 89.382 302.528 89.4145 302.709 89.5062C302.89 89.5891 303.035 89.7343 303.118 89.9153Z" fill="white"/>
<path opacity="0.3" d="M315.911 78.4929C316.002 78.6732 316.035 78.8779 316.003 79.0777C315.972 79.2775 315.878 79.4622 315.735 79.6054C315.592 79.7486 315.407 79.843 315.208 79.875C315.008 79.907 314.803 79.875 314.623 79.7836C314.443 79.6992 314.298 79.5545 314.214 79.3746C314.122 79.1943 314.09 78.9896 314.121 78.7898C314.153 78.59 314.247 78.4053 314.39 78.2621C314.532 78.1189 314.717 78.0245 314.917 77.9925C315.116 77.9605 315.321 77.9925 315.502 78.0839C315.683 78.1667 315.828 78.3119 315.911 78.4929Z" fill="white"/>
<path opacity="0.3" d="M386.167 23.8809C386.257 24.0611 386.289 24.2654 386.257 24.4646C386.225 24.6638 386.131 24.8478 385.988 24.9905C385.846 25.1331 385.662 25.2272 385.462 25.2592C385.263 25.2912 385.059 25.2596 384.879 25.1688C384.698 25.086 384.552 24.9408 384.47 24.7598C384.378 24.5795 384.345 24.3749 384.377 24.175C384.409 23.9752 384.503 23.7905 384.645 23.6473C384.788 23.5041 384.973 23.4098 385.173 23.3778C385.372 23.3458 385.577 23.3777 385.758 23.4691C385.938 23.5538 386.083 23.6997 386.167 23.8809Z" fill="white"/>
<path opacity="0.3" d="M385.346 356.62C385.438 356.8 385.47 357.005 385.438 357.205C385.406 357.404 385.311 357.589 385.168 357.732C385.025 357.875 384.84 357.969 384.64 358C384.44 358.032 384.236 357.999 384.055 357.908C383.874 357.825 383.729 357.68 383.646 357.499C383.555 357.318 383.523 357.113 383.555 356.914C383.587 356.714 383.681 356.529 383.825 356.386C383.968 356.243 384.153 356.15 384.352 356.118C384.552 356.086 384.757 356.119 384.937 356.211C385.118 356.293 385.263 356.439 385.346 356.62Z" fill="white"/>
<path opacity="0.3" d="M364.985 346.418C365.076 346.599 365.107 346.803 365.075 347.003C365.042 347.202 364.948 347.386 364.805 347.529C364.663 347.672 364.478 347.766 364.279 347.798C364.08 347.831 363.875 347.799 363.695 347.709C363.515 347.625 363.37 347.48 363.285 347.3C363.196 347.12 363.165 346.916 363.197 346.717C363.229 346.518 363.323 346.334 363.466 346.192C363.608 346.049 363.791 345.955 363.99 345.922C364.189 345.889 364.393 345.92 364.573 346.009C364.754 346.093 364.9 346.238 364.985 346.418Z" fill="white"/>
<path opacity="0.3" d="M371.512 335.748C371.603 335.928 371.635 336.132 371.603 336.331C371.571 336.53 371.477 336.715 371.334 336.857C371.191 337 371.007 337.094 370.808 337.126C370.609 337.158 370.405 337.126 370.225 337.036C370.043 336.952 369.898 336.807 369.813 336.627C369.723 336.446 369.692 336.241 369.725 336.042C369.757 335.843 369.852 335.659 369.995 335.516C370.138 335.374 370.323 335.28 370.522 335.248C370.721 335.216 370.926 335.248 371.106 335.339C371.285 335.424 371.428 335.568 371.512 335.748Z" fill="white"/>
<path opacity="0.3" d="M272.942 357.907C273.033 358.088 273.064 358.292 273.032 358.491C273 358.69 272.906 358.874 272.763 359.017C272.621 359.16 272.437 359.254 272.238 359.286C272.038 359.318 271.834 359.286 271.654 359.195C271.472 359.113 271.326 358.968 271.242 358.786C271.151 358.606 271.119 358.401 271.151 358.201C271.183 358.002 271.277 357.817 271.42 357.674C271.564 357.531 271.748 357.437 271.948 357.406C272.148 357.374 272.353 357.407 272.533 357.498C272.714 357.581 272.859 357.726 272.942 357.907Z" fill="white"/>
<path opacity="0.3" d="M185.077 296.436C185.168 296.616 185.2 296.821 185.168 297.02C185.136 297.22 185.042 297.405 184.899 297.548C184.756 297.691 184.571 297.784 184.371 297.816C184.171 297.848 183.967 297.815 183.786 297.723C183.607 297.638 183.463 297.494 183.377 297.314C183.287 297.134 183.255 296.929 183.288 296.73C183.32 296.531 183.414 296.346 183.557 296.204C183.7 296.061 183.884 295.967 184.083 295.934C184.283 295.902 184.487 295.933 184.668 296.024C184.849 296.108 184.993 296.254 185.077 296.436Z" fill="white"/>
<path opacity="0.3" d="M179.524 273.576C179.615 273.756 179.646 273.96 179.614 274.16C179.582 274.359 179.488 274.543 179.346 274.685C179.203 274.828 179.019 274.922 178.82 274.954C178.62 274.986 178.416 274.955 178.236 274.864C178.055 274.78 177.909 274.635 177.824 274.455C177.733 274.274 177.701 274.07 177.733 273.87C177.765 273.67 177.859 273.486 178.002 273.343C178.146 273.2 178.33 273.106 178.53 273.074C178.73 273.043 178.935 273.075 179.115 273.167C179.296 273.25 179.441 273.395 179.524 273.576Z" fill="white"/>
</g>
<path fill-rule="evenodd" clip-rule="evenodd" d="M200.132 48.024C226.244 48.004 251.922 54.7019 274.695 67.4731C297.467 80.2443 316.568 98.6589 330.158 120.945C309.146 120.945 288.995 129.288 274.137 144.138C259.28 158.988 250.933 179.129 250.933 200.13C250.933 221.131 259.28 241.272 274.137 256.122C288.995 270.972 309.146 279.315 330.158 279.315C316.335 301.983 296.817 320.642 273.544 333.435C250.271 346.229 224.053 352.712 197.497 352.241C170.94 351.77 144.969 344.361 122.165 330.75C99.361 317.139 80.5177 297.8 67.5078 274.656C54.4979 251.511 47.7745 225.366 48.0058 198.82C48.237 172.274 55.4148 146.25 68.8259 123.336C82.237 100.421 101.414 81.4129 124.452 68.2009C147.49 54.9889 173.586 48.0329 200.147 48.024H200.132Z" fill="#FFC780"/>
<path fill-rule="evenodd" clip-rule="evenodd" d="M330.159 120.945C309.147 120.945 288.996 129.288 274.139 144.138C259.281 158.988 250.934 179.129 250.934 200.13C250.934 221.131 259.281 241.272 274.139 256.122C288.996 270.972 309.147 279.315 330.159 279.315L329.659 280.065C314.183 294.085 294.963 303.306 274.339 306.606C253.714 309.906 232.575 307.143 213.493 298.653C194.411 290.163 178.21 276.312 166.861 258.786C155.512 241.26 149.505 220.815 149.571 199.939C149.636 179.062 155.772 158.655 167.231 141.201C178.69 123.747 194.978 109.998 214.112 101.628C233.247 93.258 254.404 90.6277 275.007 94.0573C295.61 97.4869 314.771 106.829 330.159 120.945Z" fill="url(#paint2_linear_2363_219916)"/>
</g>
<defs>
<filter id="filter0_f_2363_219916" x="-363.997" y="-56.7675" width="1127.99" height="879.201" filterUnits="userSpaceOnUse" color-interpolation-filters="sRGB">
<feFlood flood-opacity="0" result="BackgroundImageFix"/>
<feBlend mode="normal" in="SourceGraphic" in2="BackgroundImageFix" result="shape"/>
<feGaussianBlur stdDeviation="57.5693" result="effect1_foregroundBlur_2363_219916"/>
</filter>
<radialGradient id="paint0_radial_2363_219916" cx="0" cy="0" r="1" gradientUnits="userSpaceOnUse" gradientTransform="translate(199.73 200) rotate(90) scale(212)">
<stop stop-color="#311810"/>
<stop offset="1" stop-color="#1E0E0A"/>
</radialGradient>
<radialGradient id="paint1_radial_2363_219916" cx="0" cy="0" r="1" gradientUnits="userSpaceOnUse" gradientTransform="translate(200 382.833) rotate(90) scale(324.462 448.858)">
<stop stop-color="#A744F4"/>
<stop offset="0.411458" stop-color="#B2B1EE" stop-opacity="0.46"/>
<stop offset="1" stop-color="#B1C2EE" stop-opacity="0"/>
</radialGradient>
<linearGradient id="paint2_linear_2363_219916" x1="239.856" y1="307.989" x2="239.856" y2="92.6091" gradientUnits="userSpaceOnUse">
<stop stop-color="#FFC780"/>
<stop offset="1" stop-color="#964B48"/>
</linearGradient>
<clipPath id="clip0_2363_219916">
<rect width="400" height="400" fill="white"/>
</clipPath>
</defs>
</svg>
