<svg width="400" height="400" viewBox="0 0 400 400" fill="none" xmlns="http://www.w3.org/2000/svg">
<path fill-rule="evenodd" clip-rule="evenodd" d="M198.495 22.8975C228.921 22.8742 258.84 30.6785 285.374 45.5592C311.908 60.4399 334.163 81.8961 349.999 107.863C325.516 107.863 302.036 117.584 284.725 134.887C267.413 152.19 257.687 175.658 257.687 200.128C257.687 224.598 267.413 248.066 284.725 265.368C302.036 282.671 325.516 292.392 349.999 292.392C333.892 318.805 311.15 340.545 284.033 355.452C256.916 370.359 226.367 377.913 195.424 377.364C164.481 376.815 134.221 368.182 107.65 352.323C81.0791 336.464 59.1232 313.931 43.9644 286.963C28.8056 259.996 20.9717 229.533 21.2411 198.602C21.5105 167.67 29.874 137.348 45.5003 110.649C61.1266 83.949 83.4716 61.8015 110.315 46.4072C137.158 31.0129 167.564 22.9078 198.512 22.8975H198.495Z" fill="#FFC780"/>
<path fill-rule="evenodd" clip-rule="evenodd" d="M350 107.863C325.518 107.863 302.038 117.584 284.726 134.887C267.415 152.19 257.689 175.658 257.689 200.128C257.689 224.598 267.415 248.066 284.726 265.369C302.038 282.672 325.518 292.392 350 292.392L349.417 293.266C331.385 309.602 308.99 320.346 284.959 324.191C260.928 328.036 236.297 324.817 214.063 314.924C191.83 305.032 172.953 288.893 159.729 268.473C146.506 248.052 139.506 224.23 139.583 199.905C139.659 175.58 146.808 151.802 160.16 131.465C173.511 111.128 192.49 95.108 214.785 85.3555C237.08 75.6029 261.731 72.5383 285.738 76.5343C309.744 80.5304 332.071 91.415 350 107.863Z" fill="url(#paint0_linear_1417_85007)"/>
<defs>
<linearGradient id="paint0_linear_1417_85007" x1="244.781" y1="325.803" x2="244.781" y2="74.8469" gradientUnits="userSpaceOnUse">
<stop stop-color="#FFC780"/>
<stop offset="1" stop-color="#964B48"/>
</linearGradient>
</defs>
</svg>
